<svg width="165" height="26" viewBox="0 0 165 26" fill="none" xmlns="http://www.w3.org/2000/svg">
<g id="HAPLEX PLUS LOGO">
<g id="HAPLEX">
<g id="Group">
<path id="Vector" d="M162.811 4.40479C163.259 5.21914 163.513 6.14834 163.513 7.13448V19.2311C163.513 22.4069 160.872 25.0056 157.644 25.0056H6.38023C6.05334 25.0056 5.735 24.9724 5.42236 24.9212C6.79835 25.5751 8.46891 25.9604 10.2659 25.9604H156.288C160.958 25.9604 164.778 23.3617 164.778 20.186V8.0893C164.778 6.69219 164.037 5.40707 162.811 4.40479Z" fill="#90C21E"/>
<path id="Vector_2" d="M157.657 25.0494H6.39243C2.8679 25.0494 0 22.1859 0 18.6646V6.38479C0 2.86447 2.86695 0 6.39243 0H157.657C161.181 0 164.049 2.86352 164.049 6.38479V18.6646C164.049 22.1849 161.182 25.0494 157.657 25.0494Z" fill="#90C21E"/>
<g id="Group_2">
<path id="Vector_3" d="M5.37109 5.5271H7.42082V12.2858H14.9583V5.5271H16.9852V21.6632H14.9583V14.0465H7.42082V21.6632H5.37109V5.5271Z" fill="white"/>
<path id="Vector_4" d="M28.817 16.7311H22.9101L21.345 21.6627H19.2734L24.7612 5.52661H27.0314L32.5201 21.6627H30.3602L28.8179 16.7311H28.817ZM28.3095 15.1024L27.5379 12.6375C26.943 10.8095 26.4365 9.04978 25.9072 7.17809H25.8179C25.3114 9.07161 24.7831 10.8104 24.2091 12.6375L23.4166 15.1024H28.3095Z" fill="white"/>
<path id="Vector_5" d="M34.7837 5.52661H39.3906C43.0272 5.52661 45.4514 6.7377 45.4514 10.2599C45.4514 13.7821 43.0272 15.2571 39.4999 15.2571H36.8334V21.6627H34.7837V5.52661ZM39.2366 13.6056C42.0789 13.6056 43.4245 12.571 43.4245 10.2599C43.4245 7.94879 41.9915 7.17714 39.1492 7.17714H36.8344V13.6056H39.2376H39.2366Z" fill="white"/>
<path id="Vector_6" d="M48.709 5.52661H50.7587V19.9239H57.8116V21.6627H48.709V5.52661Z" fill="white"/>
<path id="Vector_7" d="M60.6509 5.52661H69.9739V7.24358H62.7016V12.3072H68.8289V14.046H62.7016V19.9239H70.2172V21.6627H60.6518V5.52661H60.6509Z" fill="white"/>
<path id="Vector_8" d="M76.4935 13.3192L72.0862 5.52588H74.3336L76.5382 9.64225C76.9572 10.3911 77.2879 11.0735 77.8172 11.998H77.9056C78.3465 11.0735 78.6554 10.3911 79.0526 9.64225L81.2116 5.52588H83.3497L78.9423 13.4283L83.6585 21.662H81.4102L79.0298 17.3036C78.6116 16.5111 78.1707 15.674 77.6414 14.7059H77.5521C77.0893 15.674 76.6703 16.5111 76.2521 17.3036L73.9154 21.662H71.7773L76.4935 13.3192Z" fill="white"/>
</g>
<g id="Group_3">
<path id="Vector_9" d="M85.1629 3.28209H83.478V2.52563H87.7599V3.28209H86.0675V8.25932H85.1629V3.28209Z" fill="white"/>
<path id="Vector_10" d="M88.751 2.52563H89.7896L90.8425 5.42332C90.9755 5.80582 91.0924 6.19497 91.2255 6.58506H91.2644C91.3965 6.19497 91.5058 5.80582 91.6388 5.42332L92.6765 2.52563H93.7218V8.25932H92.8789V5.42332C92.8789 4.90985 92.9492 4.16953 92.9958 3.64751H92.9654L92.5055 4.97154L91.5067 7.70693H90.9451L89.9388 4.97154L89.4865 3.64751H89.4561C89.495 4.16953 89.5644 4.9089 89.5644 5.42332V8.25932H88.7529V2.52563H88.751Z" fill="white"/>
</g>
<g id="Group_4">
<path id="Vector_11" d="M95.8979 5.52686H100.504C104.141 5.52686 106.565 6.73794 106.565 10.2602C106.565 13.7824 104.141 15.2573 100.614 15.2573H97.9477V21.663H95.8979V5.52686ZM100.35 13.6058C103.194 13.6058 104.538 12.5713 104.538 10.2602C104.538 7.94903 103.106 7.17739 100.262 7.17739H97.9477V13.6058H100.349H100.35Z" fill="white"/>
<path id="Vector_12" d="M109.646 19.2854V4.14014H111.652V19.4173C111.652 20.0342 111.917 20.2763 112.225 20.2763C112.335 20.2763 112.423 20.2763 112.644 20.2317L112.93 21.773C112.644 21.8822 112.29 21.9486 111.762 21.9486C110.263 21.9486 109.646 20.9805 109.646 19.2854Z" fill="white"/>
<path id="Vector_13" d="M115 17.574V10.001H117.006V17.3311C117.006 19.5539 117.667 20.5012 119.254 20.5012C120.489 20.5012 121.348 19.9061 122.494 18.4757V10H124.5V21.9533H122.825L122.671 20.0826H122.604C121.48 21.381 120.29 22.239 118.638 22.239C116.124 22.239 115 20.6103 115 17.5721V17.574Z" fill="white"/>
<path id="Vector_14" d="M127.955 20.2973L128.947 18.9761C129.982 19.8132 131.062 20.3846 132.495 20.3846C134.082 20.3846 134.853 19.5494 134.853 18.5139C134.853 17.3028 133.443 16.7523 132.12 16.2455C130.446 15.6295 128.55 14.8151 128.55 12.7897C128.55 10.8962 130.07 9.39844 132.671 9.39844C134.148 9.39844 135.449 10.0154 136.395 10.7424L135.426 12.0408C134.59 11.4248 133.752 10.9844 132.671 10.9844C131.173 10.9844 130.489 11.776 130.489 12.7005C130.489 13.8461 131.789 14.2637 133.134 14.7705C134.876 15.4301 136.793 16.1354 136.793 18.4028C136.793 20.34 135.25 21.9469 132.429 21.9469C130.732 21.9469 129.1 21.2426 127.955 20.2954V20.2973Z" fill="white"/>
</g>
<path id="Vector_15" d="M149.962 22.5048C144.52 22.5048 140.093 18.0819 140.093 12.6452C140.093 7.20864 144.521 2.7876 149.962 2.7876C155.403 2.7876 159.834 7.21054 159.834 12.6452C159.834 18.08 155.405 22.5048 149.962 22.5048Z" fill="white"/>
<path id="Vector_16" d="M153.83 20.2259C153.585 17.6462 152.756 15.1015 151.458 12.8312C150.422 10.8523 149.015 9.06414 147.326 7.64139C151.262 10.5334 153.929 15.2373 154.517 20.1148C154.589 20.0019 154.659 19.8899 154.722 19.7789C160.118 10.1044 145.391 5.06641 145.391 5.06641L145.412 5.1224C145.269 5.70232 143.154 18.7158 153.83 20.2259Z" fill="#90C21E"/>
</g>
</g>
</g>
</svg>
