<svg xmlns="http://www.w3.org/2000/svg" xmlns:xlink="http://www.w3.org/1999/xlink" width="78" height="78" viewBox="0 0 78 78">
  <defs>
    <clipPath id="clip-path">
      <rect id="Rectangle_636" data-name="Rectangle 636" width="78" height="78" rx="8" transform="translate(102 54)" fill="#00b451"/>
    </clipPath>
  </defs>
  <g id="Icone-Dados-Pessoais" transform="translate(-102 -54)" clip-path="url(#clip-path)">
    <g id="Camada_1" data-name="Camada 1" transform="translate(105.652 54)">
      <g id="Group_362" data-name="Group 362">
        <path id="Path_1150" data-name="Path 1150" d="M.008,31.13v-.6C-.01,30.721.008,30.929.008,31.13Zm0,1.586v-.527C.008,32.365,0,32.541.008,32.715Zm2.284-1.484V32.3c.006-.436.006-.875,0-1.313,0,.082,0,.162,0,.244Z"/>
        <path id="Path_1151" data-name="Path 1151" d="M70.69,51.251v-.04q0-23.1,0-46.214A4.934,4.934,0,0,0,67,.162c-.14-.04-.274-.108-.412-.162H4.116A2.322,2.322,0,0,0,3.8.054,5.059,5.059,0,0,0,.012,5.073q-.018,8.646,0,17.291V32.715c0,9.168,0,24.1,0,32.529,0,3.4,2.048,5.432,5.46,5.438.452,0,.9,0,1.452,0,0,1.355.052,2.643-.014,3.924A3.062,3.062,0,0,0,8.992,78h7.925a3.028,3.028,0,0,0,2.124-3.36c-.058-1.285-.012-2.577-.012-3.912H51.672V73.2c0,.559.022,1.117,0,1.674A2.9,2.9,0,0,0,53.786,78h7.923a3.059,3.059,0,0,0,2.086-3.392c-.06-1.265-.012-2.537-.012-3.926.561,0,1.081,0,1.6,0a4.988,4.988,0,0,0,5.31-5.284c0-2.339.008-10.647,0-14.147ZM2.292,13.739q0-4.226,0-8.453a2.711,2.711,0,0,1,3.023-3H65.336a2.721,2.721,0,0,1,3.069,3.031q0,10.319,0,20.64v.787H63.779v-.931q0-7.805,0-15.615c0-2.312-.977-3.292-3.282-3.292-9.682,0-45.823,0-50.466,0-2.06,0-3.1,1.033-3.109,3.079-.006,1.47,0,2.939,0,4.465H2.292v-.713ZM68.362,29.111V41.577H63.847V29.111ZM10.88,53.031c0,.481-.036.843-.671.837-2.537-.018-5.075-.01-7.612-.016a1.246,1.246,0,0,1-.28-.076V43.947a5.806,5.806,0,0,1,.593-.058c2.361,0,4.721.016,7.082-.014.649-.008.9.178.895.859-.028,2.767-.016,5.534-.006,8.3ZM9.206,56.144c.475,0,.873.016,1.269,0a2.611,2.611,0,0,0,2.675-2.721q.039-4.532,0-9.064a2.644,2.644,0,0,0-2.8-2.755c-.352-.008-.7,0-1.1,0V29.067c.438,0,.839.014,1.237,0A2.623,2.623,0,0,0,13.146,26.4q.048-4.61,0-9.216a2.614,2.614,0,0,0-2.657-2.667c-.4-.022-.8,0-1.277,0,0-1.658-.022-3.227.03-4.793.006-.182.41-.493.645-.507,1.013-.054,2.032-.024,3.047-.024H60.369A1.008,1.008,0,0,1,61.5,10.341V60.3a1.039,1.039,0,0,1-1.177,1.173H10.353a1,1,0,0,1-1.147-1.127c0-1.365,0-2.733,0-4.207Zm1.682-30.271c.008.689-.2.935-.913.923-2.335-.036-4.669-.012-7.006-.014-.2,0-.394-.02-.633-.032V16.8H8.852a1.776,1.776,0,0,1,2.022,2c0,2.361-.02,4.723.012,7.084ZM2.294,31.23c0-.082,0-.162,0-.244v-.324c0-.252,0-.507,0-.757v-.791H6.867V41.551H2.292V31.23Zm14.42,44.019c-.006.158-.358.438-.553.442q-3.192.045-6.387,0a.777.777,0,0,1-.539-.531C9.19,73.7,9.21,72.228,9.21,70.7h7.528c0,1.53.018,3.039-.024,4.549Zm44.778-.136c0,.394-.166.6-.595.6-2.1-.008-4.209.01-6.311-.024-.212,0-.591-.3-.6-.471-.046-1.488-.028-2.973-.028-4.5h7.532v4.393ZM68.406,50.8c0,2.411,0,12.153,0,14.566A2.725,2.725,0,0,1,65.4,68.392q-30.044.006-60.091,0A2.722,2.722,0,0,1,2.29,65.374q0-4.226,0-8.451V56.2H6.917c0,.765,0,1.518,0,2.268,0,.863-.026,1.726.008,2.591a2.645,2.645,0,0,0,2.641,2.691c.228.016.456.012.685.012q25.1,0,50.192-.006a5.279,5.279,0,0,0,1.572-.188c1.183-.38,1.76-1.373,1.762-2.891q.006-7.883,0-15.765v-.967H68.4v.775c0,1.868,0,3.74,0,5.606-.006.158,0,.316,0,.477Z"/>
        <path id="Path_1152" data-name="Path 1152" d="M47.787,44.98c.543.481,1.091.929,1.6,1.424a1.155,1.155,0,1,1-1.626,1.58c-.481-.485-.929-1-1.428-1.546a15.077,15.077,0,0,1-8.481,3.552c0,.717.01,1.416,0,2.114-.016.877-.4,1.347-1.093,1.371-.721.024-1.163-.473-1.185-1.365-.016-.681,0-1.363,0-2.11a15.154,15.154,0,0,1-8.515-3.62c-.465.543-.9,1.1-1.385,1.606A1.154,1.154,0,1,1,24.048,46.4c.485-.481,1-.931,1.558-1.442a15.144,15.144,0,0,1-3.544-8.491c-.783,0-1.558.028-2.329-.008a1.131,1.131,0,1,1,.032-2.26c.38-.014.761-.006,1.141-.008h1.139a15.006,15.006,0,0,1,3.5-8.389c-.5-.509-1-1-1.486-1.5-.611-.627-.673-1.315-.174-1.8s1.179-.422,1.8.218c.475.491.9,1.025,1.363,1.554a15.168,15.168,0,0,1,8.511-3.584c0-.749-.022-1.5.006-2.248.032-.821.519-1.3,1.227-1.229a1.073,1.073,0,0,1,1.037,1.181c.018.755,0,1.512,0,2.292a15.1,15.1,0,0,1,8.513,3.574c.493-.553.947-1.1,1.442-1.606a1.169,1.169,0,0,1,1.746-.144,1.2,1.2,0,0,1-.14,1.754c-.473.495-.953.981-1.43,1.474a.534.534,0,0,0-.05.12,14.959,14.959,0,0,1,3.448,8.339c.739,0,1.442-.014,2.144,0,.855.02,1.333.438,1.337,1.133s-.471,1.121-1.323,1.141c-.707.018-1.414,0-2.158,0a15.132,15.132,0,0,1-3.584,8.505ZM24.322,35.328a12.388,12.388,0,1,0,12.4-12.381,12.375,12.375,0,0,0-12.4,12.381Z"/>
        <path id="Path_1153" data-name="Path 1153" d="M42.57,36.469c-.088.276-.162.517-.242.753a5.923,5.923,0,1,1-6.475-7.74,5.852,5.852,0,0,1,6.443,3.95.908.908,0,0,0,1.121.765,6.525,6.525,0,0,1,1.065,0,1.17,1.17,0,0,1,1.2,1.127A1.144,1.144,0,0,1,44.5,36.459c-.633.03-1.265.006-1.928.006Zm-9.5-1.185A3.643,3.643,0,1,0,36.746,31.7,3.676,3.676,0,0,0,33.072,35.284Z"/>
      </g>
    </g>
  </g>
</svg>
