<svg xmlns="http://www.w3.org/2000/svg" xmlns:xlink="http://www.w3.org/1999/xlink" width="78" height="78" viewBox="0 0 78 78">
  <defs>
    <clipPath id="clip-path">
      <rect id="Rectangle_638" data-name="Rectangle 638" width="78" height="78" rx="8" transform="translate(102 15)" fill="#00b451"/>
    </clipPath>
  </defs>
  <g id="Icone-Site-Confiavel" transform="translate(-102 -15)" clip-path="url(#clip-path)">
    <g id="Camada_1" data-name="Camada 1" transform="translate(107.841 15)">
      <g id="Group_364" data-name="Group 364">
        <path id="Path_1154" data-name="Path 1154" d="M32.751,78c-.63-.182-1.27-.356-1.89-.522-1.37-.37-2.786-.752-4.121-1.252A40.64,40.64,0,0,1,0,37.792c.008-6.009.006-12.12,0-18.027V11.714c0-1.23.13-1.412,1.274-1.77L6.513,8.3Q19.315,4.291,32.121.274A4.277,4.277,0,0,0,32.645.06L32.777,0h.772l2.184.708C37.338,1.23,39,1.77,40.642,2.286q7.28,2.286,14.564,4.561,4.853,1.518,9.707,3.038c1.276.4,1.392.562,1.392,1.93q0,3.977.008,7.951c.008,5.871.016,11.94-.016,17.909A40.222,40.222,0,0,1,52.18,68.853a39.746,39.746,0,0,1-18.147,8.993,2.971,2.971,0,0,0-.4.122c-.03.01-.058.02-.088.032h-.8Zm.424-75.544a2.48,2.48,0,0,0-.722.1c-4.4,1.358-8.869,2.758-13.188,4.109L2.26,11.992v.838q0,3.545-.008,7.091C2.24,26,2.228,32.285,2.3,38.466a34,34,0,0,0,.872,7.713C6.877,61.309,16.407,71.121,31.5,75.34A6.354,6.354,0,0,0,33.2,75.6h0a3.541,3.541,0,0,0,.75-.076A38.1,38.1,0,0,0,64.03,38.558c.054-5.393.046-10.874.036-16.176-.006-3.1-.01-6.305,0-9.459a1.151,1.151,0,0,0-.926-1.24Q57.257,9.851,51.378,8.015q-8.75-2.733-17.5-5.457a2.387,2.387,0,0,0-.7-.1Z"/>
        <path id="Path_1155" data-name="Path 1155" d="M30.357,50.186a1.573,1.573,0,0,1-1.024-.574q-4.928-4.916-9.846-9.844c-.786-.788-.786-1.27,0-2.064,1.77-1.782,3.335-3.347,4.783-4.785a1.5,1.5,0,0,1,.994-.538,1.547,1.547,0,0,1,1.018.556c.858.856,1.7,1.712,2.6,2.618.386.392,1.474,1.492,1.474,1.492l1.472-1.488c.85-.86,1.676-1.7,2.508-2.53q2.769-2.781,5.545-5.551c.48-.478.848-.7,1.16-.7s.664.214,1.126.676c1.484,1.478,3.062,3.052,4.621,4.621.816.82.818,1.318.008,2.128C41.59,39.412,36.41,44.591,31.4,49.594a1.616,1.616,0,0,1-1.046.59ZM21.8,38.76l8.461,8.489L44.419,33.095l-3.435-3.479-.292.278-.164.154c-.134.124-.276.258-.416.4-1.716,1.714-8.483,8.479-8.483,8.479-.576.576-.954.822-1.266.822s-.7-.254-1.294-.846c-.8-.8-1.6-1.6-2.374-2.386l-1.32-1.328-3.569,3.573Z"/>
        <path id="Path_1156" data-name="Path 1156" d="M32.8,69.231c-.48-.14-.972-.272-1.446-.4l-.044-.012c-1.058-.286-2.15-.58-3.19-.97A31.483,31.483,0,0,1,7.407,38.072q.009-6.749,0-13.5v-6.5c0-1.08.19-1.342,1.2-1.658l3.182-1q10.24-3.21,20.477-6.421a3.086,3.086,0,0,0,.364-.15c.056-.026.112-.052.168-.076h.708q.8.258,1.6.518l.124.04c1.234.4,2.508.816,3.765,1.21q5.6,1.758,11.2,3.507l7.415,2.32c1.11.348,1.29.6,1.29,1.782q0,3.048.006,6.093c.006,4.5.012,9.163-.012,13.746A31.164,31.164,0,0,1,47.959,62.132,30.783,30.783,0,0,1,33.9,69.1a2.017,2.017,0,0,0-.264.082l-.02.008-.1.036H32.8Zm.37-57.949a1.55,1.55,0,0,0-.46.066c-3.393,1.048-6.833,2.124-10.158,3.166l-12.778,4v.41q0,2.715-.006,5.429c-.01,4.661-.018,9.481.04,14.232a25.793,25.793,0,0,0,.66,5.845c2.81,11.486,10.046,18.935,21.507,22.141a4.612,4.612,0,0,0,1.214.19,2.373,2.373,0,0,0,.508-.052A28.915,28.915,0,0,0,56.525,38.654c.042-4.123.034-8.317.028-12.372v-.04c0-2.25-.008-4.8,0-7.249a.575.575,0,0,0-.488-.648L47.039,15.53l-.1-.03q-6.662-2.082-13.326-4.155a1.485,1.485,0,0,0-.442-.062Z"/>
      </g>
    </g>
  </g>
</svg>
