<svg xmlns="http://www.w3.org/2000/svg" xmlns:xlink="http://www.w3.org/1999/xlink" width="78" height="78" viewBox="0 0 78 78">
  <defs>
    <clipPath id="clip-path">
      <rect id="Rectangle_639" data-name="Rectangle 639" width="78" height="78" rx="8" transform="translate(102 15)" fill="#00b451"/>
    </clipPath>
  </defs>
  <g id="Icone-Dados-Financeiros" transform="translate(-102 -15)" clip-path="url(#clip-path)">
    <g id="Camada_1" data-name="Camada 1" transform="translate(111.82 15)">
      <g id="Group_365" data-name="Group 365">
        <path id="Path_1157" data-name="Path 1157" d="M4.849,78c-.408-.13-.825-.238-1.223-.394A5.709,5.709,0,0,1,0,71.98Q0,54.615.006,37.25A8.167,8.167,0,0,1,.12,35.889a5.6,5.6,0,0,1,5.342-4.657c.6-.018,1.211,0,1.932,0v-.941c.006-3.1-.038-6.195.03-9.292A21.818,21.818,0,0,1,25.646.292C26.216.206,26.783.1,27.351,0H31c1.039.192,2.09.342,3.117.585a21.739,21.739,0,0,1,16.82,20.792c.062,2.969.018,5.94.022,8.91v.933c.613,0,1.159-.008,1.706,0a5.657,5.657,0,0,1,5.678,5.648c.028,1.217.006,2.437.006,3.656V71.141c0,4.034-1.089,5.574-4.849,6.859Zm24.3-44.162H6.047a3.067,3.067,0,0,0-3.4,3.388q-.009,17.365,0,34.727c0,2.224,1.211,3.414,3.448,3.416H52.234c2.278,0,3.474-1.185,3.476-3.466q.006-17.287,0-34.575c0-2.325-1.187-3.49-3.528-3.49H29.153Zm-11.7-2.677H41c0-3.456.012-6.853-.012-10.253a8.5,8.5,0,0,0-.266-1.726A11.9,11.9,0,0,0,28.873,9.959c-5.848.226-10.86,4.535-11.362,10.2C17.189,23.78,17.451,27.452,17.451,31.162Zm-2.749,0c0-2.022-.024-3.95.006-5.876a49.9,49.9,0,0,1,.2-5.772,14.461,14.461,0,0,1,28.741,2.5c.016,2.767,0,5.532,0,8.3v.845H48.3c.014-.24.036-.438.036-.635,0-2.943.02-5.888,0-8.832a19.155,19.155,0,0,0-38.309-.072c-.026,2.969-.006,5.938,0,8.908,0,.216.034.43.052.637H14.7Z"/>
        <path id="Path_1158" data-name="Path 1158" d="M29.189,65c-1.394,0-2.785.006-4.179,0-1.436-.008-1.934-.623-1.648-2,.422-2.034.859-4.064,1.245-6.107a1.182,1.182,0,0,0-.258-.9,6.865,6.865,0,1,1,11.627-5.722A6.533,6.533,0,0,1,34.1,55.834a1.2,1.2,0,0,0-.354,1.261c.442,2,.853,4.014,1.273,6.022.25,1.193-.268,1.86-1.5,1.878-1.444.022-2.887.006-4.331.006Zm2.965-2.7c-.4-1.92-.741-3.788-1.183-5.632a1.925,1.925,0,0,1,.807-2.284,4.132,4.132,0,0,0,.811-5.77,4.209,4.209,0,1,0-5.938,5.832,1.7,1.7,0,0,1,.743,2.092,5.662,5.662,0,0,0-.142.669c-.346,1.68-.693,3.362-1.051,5.1h5.952Z"/>
      </g>
    </g>
  </g>
</svg>
