<svg xmlns="http://www.w3.org/2000/svg" xmlns:xlink="http://www.w3.org/1999/xlink" width="78" height="78" viewBox="0 0 78 78">
  <defs>
    <clipPath id="clip-path">
      <rect id="Rectangle_640" data-name="Rectangle 640" width="78" height="78" rx="8" transform="translate(102 15)" fill="#00b451"/>
    </clipPath>
  </defs>
  <g id="Icone-Entrega-Garantida" transform="translate(-102 -15)" clip-path="url(#clip-path)">
    <g id="Camada_1" data-name="Camada 1" transform="translate(102 19.89)">
      <g id="Group_366" data-name="Group 366">
        <path id="Path_1159" data-name="Path 1159" d="M44.906,25.057c.417-.2.777-.376,1.066-.518-.287.137-.576.271-.863.406A1.449,1.449,0,0,0,44.906,25.057Zm.2-.112a1.449,1.449,0,0,0-.2.112c.417-.2.777-.376,1.066-.518C45.685,24.675,45.4,24.81,45.109,24.945Zm-.2.112c.417-.2.777-.376,1.066-.518-.287.137-.576.271-.863.406A1.449,1.449,0,0,0,44.906,25.057Z"/>
        <path id="Path_1160" data-name="Path 1160" d="M62.984,35.957q-.005-9.842.016-19.686a1.655,1.655,0,0,0-1.079-1.714Q47.133,7.455,32.371.3a1.681,1.681,0,0,1-.2-.114A1.209,1.209,0,0,0,31.508,0H31.49a1.257,1.257,0,0,0-.7.217,2.28,2.28,0,0,1-.219.126Q15.834,7.462,1.08,14.559A1.654,1.654,0,0,0,0,16.27Q.037,33.585,0,50.9a1.655,1.655,0,0,0,1.08,1.713q14.762,7.079,29.5,14.216a5.065,5.065,0,0,1,.531.343h.788c.434-.235.86-.485,1.3-.7q7.168-3.465,14.336-6.926A16.149,16.149,0,0,0,78,52.069,15.913,15.913,0,0,0,62.984,35.957ZM24.449,5.49c2.2-1.063,4.4-2.136,6.607-3.177a1.1,1.1,0,0,1,.83-.037Q45.634,8.883,59.365,15.529c.079.037.151.086.34.194l-1.737.835c-1.965.949-3.924,1.91-5.9,2.839a1.1,1.1,0,0,1-.83.063Q37.52,12.872,23.819,6.243c-.112-.056-.215-.128-.419-.249.4-.194.727-.35,1.047-.506ZM44.578,25.783a.761.761,0,0,1,.329-.727c.058-.039.781-.382,1.066-.518l3.444-1.66c.152-.072.312-.126.529-.214.014.249.035.436.035.622,0,3.015-.011,6.031.012,9.046a.78.78,0,0,1-.529.839c-1.424.66-2.833,1.355-4.25,2.035-.17.082-.35.147-.583.243-.018-.247-.04-.434-.04-.622,0-3.015.009-6.031-.014-9.046ZM19.957,7.672a2.245,2.245,0,0,1,2.346,0q13.068,6.37,26.174,12.659c.231.112.459.233.82.415-1.136.55-4.837,2.325-5.449,2.606a1.146,1.146,0,0,1-.832-.1Q31.656,17.79,20.3,12.305c-1.609-.777-3.217-1.555-4.935-2.389,1.6-.774,3.131-1.443,4.588-2.248ZM30.515,47.919V64.607c-.73-.352-1.355-.65-1.979-.949Q15.558,57.4,2.581,51.14c-.371-.179-.615-.333-.615-.844Q2,34.063,1.982,17.826V17.3c.278.121.5.208.706.308C9.2,20.752,29.356,30.517,29.9,30.736a.891.891,0,0,1,.627.984c-.019,5.4-.012,10.8-.012,16.2Zm.24-18.93c-.478-.282-20.674-10-26.825-12.971-.175-.084-.347-.177-.6-.306.179-.1.292-.177.415-.236C6.7,14.051,9.642,12.62,12.6,11.221a1.16,1.16,0,0,1,.89,0Q27.4,17.9,41.29,24.614c-3.458,1.664-7.791,3.754-9.017,4.369a1.417,1.417,0,0,1-1.516.007ZM46.727,57.741q-6.934,3.349-13.869,6.695c-.075.037-.156.065-.373.151v-.869q0-15.939-.012-31.879a1.045,1.045,0,0,1,.7-1.136c1.292-.592,5.956-2.842,9.461-4.539-.014,3.507-.009,7.011-.007,10.517,0,1.289.6,1.672,1.746,1.121,2.224-1.066,4.439-2.152,6.672-3.2a1.443,1.443,0,0,0,.921-1.487c-.025-3.63-.009-7.26-.016-10.888,0-.345.03-.6.413-.777,2.781-1.319,5.549-2.665,8.321-4,.077-.037.159-.06.308-.116.011.217.028.4.028.583V35.94a16.156,16.156,0,0,0-14.291,21.8ZM61.849,66.12a14.06,14.06,0,0,1-12.421-7.488,13.9,13.9,0,0,1-1.63-6.563A14.068,14.068,0,0,1,61.019,38.041c.275-.016.553-.025.83-.025.382,0,.762.016,1.135.046A14.052,14.052,0,0,1,61.849,66.12Z"/>
        <path id="Path_1161" data-name="Path 1161" d="M14.776,45c-.03,1.024-.772,1.413-1.55,1.044-1.87-.89-3.733-1.8-5.6-2.7-.884-.427-1.77-.846-2.651-1.28-.669-.329-.9-.818-.662-1.354a.991.991,0,0,1,1.492-.424c2.753,1.32,5.507,2.637,8.244,3.994a2.789,2.789,0,0,1,.725.721Z"/>
        <path id="Path_1162" data-name="Path 1162" d="M5.05,44.673c.376.144.587.207.779.3q2.033.972,4.059,1.958c.709.347.933.848.667,1.4s-.827.688-1.509.364q-2.093-1-4.178-2.014c-.48-.235-.8-.641-.594-1.156.14-.347.527-.6.774-.856Z"/>
        <path id="Path_1163" data-name="Path 1163" d="M55.44,56.733q-1.505-1.505-3.007-3.01c-.574-.576-.574-.965,0-1.546,1.2-1.207,2.264-2.273,3.261-3.261a.912.912,0,0,1,1.509.012l.226.226c.508.508,1.009,1.016,1.539,1.553.264.268.532.541.809.82l.13.131.926-.937c.581-.588,1.145-1.159,1.714-1.73,1.15-1.154,2.385-2.392,3.779-3.782.672-.671,1.037-.676,1.7-.018q.888.885,1.772,1.769c.459.459.919.919,1.376,1.38.594.6.6,1,.005,1.59-3.525,3.53-7.053,7.059-10.489,10.487-.569.567-.988.571-1.55.011q-1.852-1.847-3.7-3.7Zm-1.219-3.767,5.626,5.644L69.353,49.1l-2.2-2.233-.13.123c-.035.033-.072.068-.112.1-.088.082-.187.175-.282.27Q64.959,49.03,63.3,50.695l-2.452,2.45c-.785.785-1.084.783-1.879-.012-.553-.553-1.1-1.1-1.636-1.643l-.818-.821-2.292,2.3Z"/>
      </g>
    </g>
  </g>
</svg>
