<svg width="120" height="41" viewBox="0 0 120 41" fill="none" xmlns="http://www.w3.org/2000/svg">
<g id="VERISOL LOGO">
<path id="Vector" d="M0.365211 37.3232C8.58576 32.5899 11.9492 31.6004 19.941 30.408C33.7748 28.3442 43.0284 32.0598 57.3562 35.5256C75.6258 39.9445 82.4044 42.064 100.641 38.7305C109.364 37.1366 110.343 36.6906 120 32.3713V25.9534C112.192 30.1247 109.581 31.9059 101.727 34.1897C90.3867 37.4883 82.4995 36.8028 71.5148 35.2432C61.3467 33.8017 49.1786 28.9137 39.0859 27.3599C26.2698 25.3862 13.3971 24.2324 0.362305 29.3122L0.364484 37.3232H0.365211Z" fill="#FF9900"/>
<g id="Group">
<path id="Vector_2" d="M6.30562 13.122L2.1612 0.549316H0L5.25444 15.3129H7.32701L12.5902 0.549316H10.4006L6.30562 13.122Z" fill="#FF9900"/>
<path id="Vector_3" d="M16.3218 8.54924H24.2379V6.84086H16.3218V2.35805H24.8859V0.549316H14.417V15.3129H25.0334V13.5539H16.3218V8.54924Z" fill="#FF9900"/>
<path id="Vector_4" d="M38.8271 14.0766C38.7552 13.8015 38.7087 13.383 38.6898 12.8202L38.6208 10.8405C38.5881 9.98257 38.4298 9.36256 38.1443 8.98044C37.8595 8.59907 37.436 8.29055 36.873 8.05563C37.5144 7.71366 38.0128 7.26166 38.3702 6.69889C38.7269 6.13612 38.9056 5.41204 38.9056 4.52811C38.9056 2.83312 38.2401 1.67041 36.9093 1.04074C36.2083 0.712147 35.3176 0.547852 34.2381 0.547852H27.6797V15.3129H29.6346V8.98118H33.9563C34.7321 8.98118 35.3016 9.07188 35.6641 9.25253C36.3005 9.58112 36.6405 10.2279 36.6855 11.1921L36.8032 13.6543C36.8294 14.2305 36.8621 14.6185 36.902 14.82C36.9412 15.0215 36.9936 15.1858 37.0589 15.3129H39.4555V14.9813C39.154 14.8475 38.9448 14.5464 38.8271 14.0773V14.0766ZM36.1436 6.75019C35.6242 7.12561 34.9195 7.31296 34.0282 7.31296H29.6353V2.26812H34.2766C34.9261 2.26812 35.4448 2.36923 35.8334 2.56995C36.5591 2.95207 36.9216 3.66872 36.9216 4.72066C36.9216 5.699 36.663 6.37551 36.1436 6.75019Z" fill="#FF9900"/>
<path id="Vector_5" d="M44.1837 0.549316H42.21V15.3129H44.1837V0.549316Z" fill="#FF9900"/>
<path id="Vector_6" d="M56.4782 8.17767C55.9639 7.78217 55.2345 7.46993 54.2894 7.24245L52.3294 6.76963C51.0095 6.44848 50.1631 6.18085 49.7883 5.966C49.2173 5.63072 48.9318 5.1014 48.9318 4.37806C48.9318 3.72162 49.1737 3.14621 49.6568 2.64961C50.1399 2.15375 50.9339 1.90545 52.0388 1.90545C53.4075 1.90545 54.3773 2.29054 54.9483 3.06072C55.2556 3.48298 55.4568 4.08961 55.5505 4.87986H57.3877C57.3877 3.2384 56.8727 2.04447 55.844 1.29733C54.8153 0.550198 53.5644 0.177002 52.0933 0.177002C50.4944 0.177002 49.258 0.602237 48.3855 1.45271C47.5123 2.30318 47.0757 3.39228 47.0757 4.71854C47.0757 5.94518 47.5203 6.86628 48.408 7.48257C48.9224 7.83792 49.7977 8.1628 51.0342 8.45794L52.9266 8.90993C53.9545 9.15824 54.7086 9.44891 55.1909 9.78419C55.6668 10.1262 55.9043 10.6986 55.9043 11.503C55.9043 12.575 55.3435 13.3191 54.2204 13.7347C53.6399 13.9488 52.9963 14.0559 52.2902 14.0559C50.7131 14.0559 49.6125 13.5667 48.9877 12.5891C48.6601 12.0665 48.4741 11.3863 48.4298 10.5484H46.5933C46.5737 12.1431 47.059 13.4061 48.0484 14.3376C49.0386 15.2758 50.408 15.7442 52.1573 15.7442C53.6574 15.7442 54.9744 15.3925 56.1077 14.6893C57.241 13.986 57.8083 12.8166 57.8083 11.1818C57.8083 9.8682 57.3637 8.86682 56.476 8.17692L56.4782 8.17767Z" fill="#FF9900"/>
<path id="Vector_7" d="M66.5946 0.147949C64.1588 0.147949 62.3194 1.05938 61.0757 2.8815C60.1066 4.30217 59.6221 6.01054 59.6221 8.00736C59.6221 10.2183 60.188 12.0478 61.3212 13.4945C62.5911 14.9955 64.336 15.7463 66.5561 15.7463C68.933 15.7463 70.7622 14.8884 72.0459 13.1734C73.1392 11.7126 73.6862 9.88078 73.6862 7.6758C73.6862 5.63958 73.2082 3.96763 72.2529 2.66145C71.0281 0.986525 69.143 0.148693 66.596 0.148693L66.5946 0.147949ZM70.5276 12.0709C69.7583 13.3354 68.5124 13.9666 66.7907 13.9666C64.9775 13.9666 63.6662 13.4053 62.8577 12.282C62.0492 11.1587 61.6452 9.77893 61.6452 8.14267C61.6452 6.09752 62.1167 4.55047 63.0589 3.50151C64.0019 2.4518 65.2194 1.92695 66.7123 1.92695C68.2051 1.92695 69.4641 2.45701 70.3511 3.51638C71.2381 4.57575 71.6819 5.97412 71.6819 7.71074C71.6819 9.35295 71.2969 10.8063 70.5276 12.0709Z" fill="#FF9900"/>
<path id="Vector_8" d="M77.7657 0.549316H75.8115V15.3129H85.0033V13.5539H77.7657V0.549316Z" fill="#FF9900"/>
<path id="Vector_9" d="M86.1987 4.07375C86.1943 3.99421 86.1914 3.91838 86.1914 3.84776V3.62622C86.1914 3.47307 86.1376 3.31621 86.0301 3.15563C85.9226 2.99431 85.7526 2.89618 85.5201 2.85827C85.7039 2.82779 85.8463 2.77872 85.9495 2.71181C86.1427 2.5832 86.2393 2.38322 86.2393 2.11187C86.2393 1.72976 86.0861 1.47328 85.7788 1.34244C85.6066 1.26958 85.3371 1.23315 84.9688 1.23315H83.9307V4.27002H84.4537V3.07534H84.8663C85.1431 3.07534 85.3378 3.10731 85.4482 3.17273C85.6342 3.28499 85.7279 3.51693 85.7279 3.86783V4.1087L85.7388 4.20608C85.7417 4.21872 85.7439 4.22987 85.7468 4.23954C85.7497 4.24994 85.7519 4.25961 85.7548 4.27002H86.2444L86.2255 4.2321C86.2132 4.20757 86.2045 4.15404 86.1994 4.07375H86.1987ZM85.4243 2.63004C85.3138 2.67539 85.1475 2.69843 84.9259 2.69843H84.453V1.59743H84.899C85.1903 1.59743 85.401 1.63534 85.5325 1.71043C85.664 1.78551 85.7301 1.9342 85.7301 2.15574C85.7301 2.38917 85.6277 2.54752 85.4235 2.63004H85.4243Z" fill="#FF9900"/>
<path id="Vector_10" d="M86.9353 0.806609C86.4079 0.268374 85.7686 0 85.0211 0C84.2735 0 83.6415 0.269117 83.117 0.806609C82.5889 1.34633 82.3252 1.99756 82.3252 2.75882C82.3252 3.52008 82.5867 4.18173 83.109 4.72293C83.635 5.26563 84.2714 5.53698 85.0211 5.53698C85.7708 5.53698 86.4079 5.26563 86.9353 4.72293C87.4634 4.1795 87.7271 3.52529 87.7271 2.75882C87.7271 1.99236 87.4634 1.3441 86.9353 0.806609ZM86.6665 4.45828C86.2146 4.92589 85.6654 5.16006 85.0203 5.16006C84.3752 5.16006 83.8261 4.92663 83.3735 4.45828C82.9245 3.99067 82.6993 3.42567 82.6993 2.76254C82.6993 2.09941 82.9252 1.54259 83.3771 1.07721C83.8311 0.610346 84.3782 0.37617 85.0196 0.37617C85.6611 0.37617 86.2117 0.609603 86.6658 1.07721C87.1169 1.54259 87.3435 2.10387 87.3435 2.76254C87.3435 3.42121 87.1169 3.99067 86.6658 4.45828H86.6665Z" fill="#FF9900"/>
</g>
<g id="Group_2">
<path id="Vector_11" d="M53.2543 21.113V21.0952C53.5289 20.9889 54.1711 20.7079 54.1711 19.7028C54.1711 18.4955 53.2027 18.2576 52.6288 18.2576H50.9238V24.3387H52.5605C53.3059 24.3387 54.4537 24.1625 54.4537 22.6735C54.4537 21.5011 53.6916 21.1844 53.2543 21.1138V21.113ZM51.781 18.9631H52.2692C52.7145 18.9631 53.3139 18.998 53.3139 19.8619C53.3139 20.6729 52.7138 20.7785 52.3201 20.7785H51.7803V18.9631H51.781ZM52.4407 23.634H51.781V21.4833H52.3549C52.7058 21.4833 53.5965 21.5806 53.5965 22.5939C53.5965 23.1671 53.2107 23.6347 52.4407 23.6347V23.634Z" fill="#393939"/>
<path id="Vector_12" d="M56.8447 20.0461C56.3217 20.0461 55.1826 20.2402 55.1826 22.0378C55.1826 23.6859 55.9701 24.4353 57.2036 24.4353C57.6497 24.4353 57.8894 24.3736 58.2228 24.294V23.6688C58.0434 23.7313 57.8037 23.819 57.4521 23.819C56.3384 23.819 55.9534 22.718 55.9534 21.9329H58.3173V21.73C58.3173 20.7435 57.8378 20.0469 56.844 20.0469L56.8447 20.0461ZM55.9883 21.4036C55.9883 21.2185 56.1677 20.6632 56.8019 20.6632C57.3925 20.6632 57.5472 21.1397 57.5472 21.4036H55.9883Z" fill="#393939"/>
<path id="Vector_13" d="M60.6731 20.0461C59.5333 20.0461 59.149 20.6364 59.149 21.3062H59.9626C59.9626 20.971 60.1515 20.6624 60.6135 20.6624C60.9049 20.6624 61.1707 20.7948 61.239 21.2007V21.9322C60.2024 21.9322 59.0117 22.1969 59.0117 23.3068C59.0117 23.9595 59.4055 24.4353 60.1682 24.4353C60.7937 24.4353 61.1184 24.0472 61.2216 23.8182H61.239V24.3386H62.0098V21.4564C62.0098 21.0773 62.0098 20.0461 60.6738 20.0461H60.6731ZM61.2383 22.6987C61.2383 23.1923 60.8446 23.8175 60.3128 23.8175C60.0811 23.8175 59.8675 23.6064 59.8675 23.2793C59.8675 22.7418 60.4762 22.46 61.0843 22.46H61.2383V22.6979V22.6987Z" fill="#393939"/>
<path id="Vector_14" d="M65.6084 21.9233C65.6084 22.7611 65.1631 23.6421 64.5289 23.6421C63.9717 23.6421 63.9717 23.2183 63.9717 22.4348V20.1428H63.2002V23.0511C63.2002 23.5715 63.3542 24.4353 64.2971 24.4353C65.1282 24.4353 65.4624 23.7923 65.591 23.4391H65.6084V24.3379H66.3792V20.1428H65.6084V21.9226V21.9233Z" fill="#393939"/>
<path id="Vector_15" d="M68.7963 18.6628L68.0248 19.1565V20.143H67.2969V20.76H68.0248V23.4125C68.0248 23.9857 68.2652 24.4347 69.2503 24.4347C69.4559 24.4347 69.6615 24.4176 69.8584 24.373V23.756C69.7472 23.7917 69.5838 23.8177 69.4472 23.8177C68.8471 23.8177 68.7963 23.3776 68.7963 22.9985V20.76H69.9266V20.143H68.7963V18.6628Z" fill="#393939"/>
<path id="Vector_16" d="M72.0424 23.1752H72.0249L70.9549 20.1436H70.0977L71.6486 24.3647L71.074 26.1452H71.8288L73.8585 20.1436H73.002L72.0424 23.1752Z" fill="#393939"/>
<path id="Vector_17" d="M77.3636 19.6589V20.1429H76.627V20.7599H77.3636V24.338H78.1343V20.7599H79.3512V20.1429H78.1343V19.7109C78.1343 19.2879 78.3145 18.7772 78.9313 18.7772C79.2654 18.7772 79.5052 18.83 79.7456 18.8999V18.239C79.4884 18.1773 79.1804 18.1602 78.9233 18.1602C77.8786 18.1602 77.3643 18.6709 77.3643 19.6589H77.3636Z" fill="#393939"/>
<path id="Vector_18" d="M80.8505 20.9895H80.833V20.1435H80.0615V24.3386H80.833V22.5581C80.833 21.272 81.4156 20.91 82.1094 20.91V20.0469C81.3045 20.0469 80.9609 20.655 80.8505 20.9895Z" fill="#393939"/>
<path id="Vector_19" d="M84.4314 20.0461C83.1979 20.0461 82.624 20.9011 82.624 22.2407C82.624 23.5804 83.1979 24.4345 84.4314 24.4345C85.665 24.4345 86.2301 23.5625 86.2301 22.2407C86.2301 20.9189 85.6562 20.0461 84.4314 20.0461ZM84.4314 23.8182C83.5829 23.8182 83.4805 22.9105 83.4805 22.2415C83.4805 21.5724 83.5829 20.6632 84.4314 20.6632C85.2799 20.6632 85.3736 21.562 85.3736 22.2415C85.3736 22.9209 85.2618 23.8182 84.4314 23.8182Z" fill="#393939"/>
<path id="Vector_20" d="M91.3449 20.0461C90.6686 20.0461 90.3257 20.5836 90.1891 20.936H90.1717C90.1114 20.5569 89.8542 20.0461 89.135 20.0461C88.4159 20.0461 88.1158 20.6453 87.996 20.9799H87.9778V20.1428H87.207V24.3379H87.9778V22.5574C87.9778 21.7203 88.3643 20.8394 88.9033 20.8394C89.4423 20.8394 89.4431 21.2713 89.4431 22.0467V24.3386H90.2146V22.3292C90.2146 21.6244 90.6337 20.8401 91.1146 20.8401C91.6798 20.8401 91.6798 21.2639 91.6798 22.0474V24.3394H92.4513V21.4304C92.4513 20.91 92.3053 20.0469 91.3456 20.0469L91.3449 20.0461Z" fill="#393939"/>
<path id="Vector_21" d="M101.189 23.1136H101.171L99.7157 18.2568H98.9616L97.4971 23.1136H97.4797L96.6144 18.2568H95.835L96.9399 24.338H97.8908L99.3299 19.5615H99.3474L100.803 24.338H101.754L102.834 18.2568H102.054L101.189 23.1136Z" fill="#393939"/>
<path id="Vector_22" d="M104.625 18.2568H103.7V19.1556H104.625V18.2568Z" fill="#393939"/>
<path id="Vector_23" d="M104.549 20.1428H103.777V24.3379H104.549V20.1428Z" fill="#393939"/>
<path id="Vector_24" d="M107.016 18.6628L106.244 19.1565V20.143H105.516V20.76H106.244V23.4125C106.244 23.9857 106.485 24.4347 107.47 24.4347C107.675 24.4347 107.881 24.4176 108.078 24.373V23.756C107.967 23.7917 107.803 23.8177 107.667 23.8177C107.067 23.8177 107.016 23.3776 107.016 22.9985V20.76H108.146V20.143H107.016V18.6628Z" fill="#393939"/>
<path id="Vector_25" d="M111.008 20.0462C110.177 20.0462 109.851 20.6893 109.714 21.0424H109.697V18.2576H108.926V24.3387H109.697V22.5582C109.697 21.7212 110.142 20.8402 110.776 20.8402C111.333 20.8402 111.333 21.2721 111.333 22.0483V24.3395H112.105V21.4312C112.105 20.9108 111.951 20.047 111.008 20.047V20.0462Z" fill="#393939"/>
<path id="Vector_26" d="M114.229 20.1428H113.458V24.3379H114.229V20.1428Z" fill="#393939"/>
<path id="Vector_27" d="M114.307 18.2568H113.382V19.1556H114.307V18.2568Z" fill="#393939"/>
<path id="Vector_28" d="M117.673 20.0461C116.842 20.0461 116.517 20.6892 116.38 21.0423H116.362V20.1435H115.591V24.3386H116.362V22.5582C116.362 21.7211 116.808 20.8401 117.442 20.8401C117.999 20.8401 117.999 21.272 117.999 22.0474V24.3394H118.77V21.4304C118.77 20.91 118.616 20.0469 117.673 20.0469V20.0461Z" fill="#393939"/>
</g>
</g>
</svg>
